<?xml version="1.0" encoding="UTF-8"?>
<svg xmlns="http://www.w3.org/2000/svg" viewBox="0 0 320 240" fill="none" aria-labelledby="title desc">
  <title id="title">Home hero — variant C</title>
  <desc id="desc">Elevation cabinet — architectural front section with varied forms</desc>
  <rect width="320" height="240" fill="#f7f5f0"/>
  <rect x="48" y="24" width="224" height="184" fill="#edeae4" stroke="#8a857e" stroke-width="1.5"/>
  <line x1="48" y1="76" x2="272" y2="76" stroke="#8a857e" stroke-width="1.5"/>
  <line x1="48" y1="128" x2="272" y2="128" stroke="#8a857e" stroke-width="1.5"/>
  <line x1="48" y1="180" x2="272" y2="180" stroke="#8a857e" stroke-width="1.5"/>
  <rect x="56" y="212" width="20" height="8" fill="#d4cfc4" stroke="#8a857e" stroke-width="1"/>
  <rect x="244" y="212" width="20" height="8" fill="#d4cfc4" stroke="#8a857e" stroke-width="1"/>
  <rect x="64" y="40" width="12" height="32" rx="2" fill="#6b7d62" stroke="#8a857e" stroke-width="1"/>
  <rect x="64" y="36" width="12" height="4" fill="#5a6b52"/>
  <rect x="82" y="42" width="12" height="30" rx="2" fill="#d4cfc4" stroke="#8a857e" stroke-width="1"/>
  <rect x="100" y="40" width="12" height="32" rx="2" fill="#6b7d62" stroke="#8a857e" stroke-width="1"/>
  <rect x="180" y="38" width="28" height="34" fill="#8a7d6e" stroke="#8a857e" stroke-width="1"/>
  <rect x="214" y="40" width="24" height="32" fill="#d4cfc4" stroke="#8a857e" stroke-width="1"/>
  <rect x="62" y="88" width="14" height="36" rx="2" fill="#6b7d62" stroke="#8a857e" stroke-width="1"/>
  <rect x="82" y="92" width="12" height="32" rx="2" fill="#d4cfc4" stroke="#8a857e" stroke-width="1"/>
  <rect x="98" y="90" width="16" height="34" rx="2" fill="#a09a94" stroke="#8a857e" stroke-width="1"/>
  <rect x="118" y="92" width="12" height="32" rx="2" fill="#a09a94" stroke="#8a857e" stroke-width="1"/>
  <rect x="188" y="90" width="22" height="34" fill="#d4cfc4" stroke="#8a857e" stroke-width="1"/>
  <rect x="216" y="92" width="22" height="32" fill="#d4cfc4" stroke="#8a857e" stroke-width="1"/>
  <rect x="62" y="140" width="56" height="36" fill="#8a7d6e" stroke="#8a857e" stroke-width="1"/>
  <rect x="128" y="148" width="12" height="28" rx="2" fill="#d4cfc4" stroke="#8a857e" stroke-width="1"/>
  <rect x="146" y="150" width="12" height="26" rx="2" fill="#a09a94" stroke="#8a857e" stroke-width="1"/>
  <rect x="164" y="150" width="12" height="26" rx="2" fill="#a09a94" stroke="#8a857e" stroke-width="1"/>
  <rect x="196" y="138" width="36" height="38" rx="4" fill="#6b7d62" stroke="#8a857e" stroke-width="1"/>
  <rect x="196" y="130" width="36" height="8" rx="2" fill="#5a6b52"/>
</svg>
