<?xml version="1.0" encoding="UTF-8"?>
<svg xmlns="http://www.w3.org/2000/svg" viewBox="0 0 320 240" fill="none" aria-labelledby="title desc">
  <title id="title">Home hero — variant B</title>
  <desc id="desc">Object study row — five pantry forms in quiet sequence</desc>
  <rect width="320" height="240" fill="#f7f5f0"/>
  <rect x="36" y="64" width="20" height="112" rx="2" fill="#5a6b52" stroke="#8a857e" stroke-width="1"/>
  <rect x="38" y="104" width="16" height="4" fill="#4a5a44"/>
  <rect x="40" y="54" width="12" height="12" rx="1" fill="#6b7d62" stroke="#8a857e" stroke-width="1"/>
  <rect x="42" y="44" width="8" height="10" rx="1" fill="#5a6b52" stroke="#8a857e" stroke-width="0.75"/>
  <rect x="84" y="88" width="32" height="88" rx="4" fill="#d4cfc4" stroke="#8a857e" stroke-width="1"/>
  <ellipse cx="100" cy="88" rx="16" ry="4" fill="#c8c0b0" stroke="#8a857e" stroke-width="0.75"/>
  <line x1="86" y1="116" x2="114" y2="116" stroke="#b8b2a8" stroke-width="1"/>
  <rect x="136" y="52" width="36" height="124" fill="#8a7d6e" stroke="#8a857e" stroke-width="1"/>
  <rect x="134" y="44" width="40" height="10" fill="#726758" stroke="#8a857e" stroke-width="0.75"/>
  <line x1="138" y1="76" x2="170" y2="76" stroke="#726758" stroke-width="0.75"/>
  <line x1="138" y1="100" x2="170" y2="100" stroke="#726758" stroke-width="0.75"/>
  <line x1="138" y1="124" x2="170" y2="124" stroke="#726758" stroke-width="0.75"/>
  <line x1="138" y1="148" x2="170" y2="148" stroke="#726758" stroke-width="0.75"/>
  <rect x="192" y="128" width="40" height="48" fill="#94a58c" stroke="#8a857e" stroke-width="1"/>
  <rect x="190" y="120" width="44" height="10" fill="#6b7d62" stroke="#8a857e" stroke-width="0.75"/>
  <rect x="256" y="68" width="10" height="108" rx="2" fill="#94a58c" stroke="#8a857e" stroke-width="1"/>
  <rect x="254" y="58" width="14" height="12" rx="1" fill="#6b7d62" stroke="#8a857e" stroke-width="0.75"/>
</svg>
