<?xml version="1.0" encoding="UTF-8"?>
<svg xmlns="http://www.w3.org/2000/svg" viewBox="0 0 320 240" fill="none" aria-labelledby="title desc">
  <title id="title">Household — variant C</title>
  <desc id="desc">Shelf system combined with object study row — dual composition</desc>
  <rect width="320" height="240" fill="#f7f5f0"/>
  <!-- shelf upper -->
  <rect x="40" y="28" width="180" height="108" fill="none" stroke="#8a857e" stroke-width="1.5"/>
  <line x1="40" y1="64" x2="220" y2="64" stroke="#8a857e" stroke-width="1.5"/>
  <line x1="40" y1="100" x2="220" y2="100" stroke="#8a857e" stroke-width="1.5"/>
  <rect x="48" y="36" width="12" height="24" fill="#6b7d62" stroke="#8a857e" stroke-width="1"/>
  <rect x="64" y="40" width="16" height="20" fill="#d4cfc4" stroke="#8a857e" stroke-width="1"/>
  <rect x="84" y="38" width="10" height="22" fill="#8a7d6e" stroke="#8a857e" stroke-width="1"/>
  <rect x="140" y="36" width="24" height="24" fill="#d4cfc4" stroke="#8a857e" stroke-width="1"/>
  <rect x="170" y="40" width="14" height="20" fill="#6b7d62" stroke="#8a857e" stroke-width="1"/>
  <rect x="48" y="68" width="28" height="28" fill="#d4cfc4" stroke="#8a857e" stroke-width="1"/>
  <rect x="82" y="72" width="18" height="24" fill="#8a7d6e" stroke="#8a857e" stroke-width="1"/>
  <rect x="130" y="70" width="22" height="26" fill="#6b7d62" stroke="#8a857e" stroke-width="1"/>
  <rect x="168" y="72" width="16" height="24" fill="#d4cfc4" stroke="#8a857e" stroke-width="1"/>
  <rect x="48" y="106" width="30" height="26" fill="#8a7d6e" stroke="#8a857e" stroke-width="1"/>
  <rect x="84" y="110" width="16" height="22" fill="#d4cfc4" stroke="#8a857e" stroke-width="1"/>
  <rect x="130" y="108" width="28" height="24" fill="#6b7d62" stroke="#8a857e" stroke-width="1"/>
  <!-- object row lower -->
  <line x1="40" y1="168" x2="280" y2="168" stroke="#d4cfc4" stroke-width="1"/>
  <rect x="232" y="88" width="14" height="80" rx="2" fill="#5a6b52" stroke="#8a857e" stroke-width="1"/>
  <rect x="234" y="80" width="10" height="8" fill="#6b7d62"/>
  <rect x="252" y="104" width="24" height="64" rx="3" fill="#d4cfc4" stroke="#8a857e" stroke-width="1"/>
  <rect x="48" y="128" width="12" height="40" rx="2" fill="#94a58c" stroke="#8a857e" stroke-width="1"/>
  <rect x="72" y="120" width="28" height="48" fill="#8a7d6e" stroke="#8a857e" stroke-width="1"/>
  <rect x="108" y="124" width="32" height="44" fill="#94a58c" stroke="#8a857e" stroke-width="1"/>
  <rect x="148" y="116" width="10" height="52" rx="2" fill="#6b7d62" stroke="#8a857e" stroke-width="1"/>
  <rect x="168" y="128" width="24" height="40" fill="#d4cfc4" stroke="#8a857e" stroke-width="1"/>
</svg>
