<?xml version="1.0" encoding="UTF-8"?>
<svg xmlns="http://www.w3.org/2000/svg" viewBox="0 0 320 240" fill="none" aria-labelledby="title desc">
  <title id="title">Pantry shelf — variant B</title>
  <desc id="desc">Elevation cabinet — front section with bottles and boxes</desc>
  <rect width="320" height="240" fill="#f7f5f0"/>
  <rect x="56" y="28" width="208" height="176" fill="#edeae4" stroke="#8a857e" stroke-width="1.5"/>
  <line x1="56" y1="76" x2="264" y2="76" stroke="#8a857e" stroke-width="1.5"/>
  <line x1="56" y1="124" x2="264" y2="124" stroke="#8a857e" stroke-width="1.5"/>
  <line x1="56" y1="172" x2="264" y2="172" stroke="#8a857e" stroke-width="1.5"/>
  <rect x="64" y="204" width="16" height="8" fill="#d4cfc4" stroke="#8a857e" stroke-width="1"/>
  <rect x="240" y="204" width="16" height="8" fill="#d4cfc4" stroke="#8a857e" stroke-width="1"/>
  <rect x="68" y="44" width="10" height="28" rx="2" fill="#6b7d62" stroke="#8a857e" stroke-width="1"/>
  <rect x="68" y="40" width="10" height="4" fill="#5a6b52"/>
  <rect x="84" y="46" width="10" height="26" rx="2" fill="#d4cfc4" stroke="#8a857e" stroke-width="1"/>
  <rect x="100" y="44" width="10" height="28" rx="2" fill="#6b7d62" stroke="#8a857e" stroke-width="1"/>
  <rect x="168" y="42" width="22" height="30" fill="#8a7d6e" stroke="#8a857e" stroke-width="1"/>
  <rect x="196" y="44" width="20" height="28" fill="#d4cfc4" stroke="#8a857e" stroke-width="1"/>
  <rect x="66" y="88" width="12" height="32" rx="2" fill="#6b7d62" stroke="#8a857e" stroke-width="1"/>
  <rect x="82" y="92" width="10" height="28" rx="2" fill="#d4cfc4" stroke="#8a857e" stroke-width="1"/>
  <rect x="96" y="90" width="14" height="30" rx="2" fill="#a09a94" stroke="#8a857e" stroke-width="1"/>
  <rect x="114" y="92" width="10" height="28" rx="2" fill="#a09a94" stroke="#8a857e" stroke-width="1"/>
  <rect x="174" y="90" width="18" height="30" fill="#d4cfc4" stroke="#8a857e" stroke-width="1"/>
  <rect x="196" y="92" width="18" height="28" fill="#d4cfc4" stroke="#8a857e" stroke-width="1"/>
  <rect x="66" y="136" width="48" height="32" fill="#8a7d6e" stroke="#8a857e" stroke-width="1"/>
  <rect x="124" y="144" width="10" height="24" rx="2" fill="#d4cfc4" stroke="#8a857e" stroke-width="1"/>
  <rect x="140" y="146" width="10" height="22" rx="2" fill="#a09a94" stroke="#8a857e" stroke-width="1"/>
  <rect x="156" y="146" width="10" height="22" rx="2" fill="#a09a94" stroke="#8a857e" stroke-width="1"/>
  <rect x="184" y="138" width="28" height="30" rx="4" fill="#6b7d62" stroke="#8a857e" stroke-width="1"/>
  <rect x="184" y="132" width="28" height="6" rx="2" fill="#5a6b52"/>
</svg>
