<?xml version="1.0" encoding="UTF-8"?>
<svg xmlns="http://www.w3.org/2000/svg" viewBox="0 0 320 240" fill="none" aria-labelledby="title desc">
  <title id="title">Household — variant A</title>
  <desc id="desc">Top-view grid with connected forms — shared space geometry</desc>
  <rect width="320" height="240" fill="#f7f5f0"/>
  <rect x="48" y="36" width="224" height="168" fill="#edeae4" stroke="#8a857e" stroke-width="1.5"/>
  <!-- connection lines -->
  <line x1="88" y1="72" x2="136" y2="72" stroke="#8a857e" stroke-width="1" opacity="0.4"/>
  <line x1="136" y1="72" x2="184" y2="72" stroke="#8a857e" stroke-width="1" opacity="0.4"/>
  <line x1="88" y1="72" x2="88" y2="132" stroke="#8a857e" stroke-width="1" opacity="0.4"/>
  <line x1="184" y1="72" x2="184" y2="132" stroke="#8a857e" stroke-width="1" opacity="0.4"/>
  <line x1="88" y1="132" x2="136" y2="132" stroke="#8a857e" stroke-width="1" opacity="0.4"/>
  <line x1="136" y1="132" x2="184" y2="132" stroke="#8a857e" stroke-width="1" opacity="0.4"/>
  <circle cx="88" cy="72" r="18" fill="#6b7d62" stroke="#8a857e" stroke-width="1"/>
  <circle cx="136" cy="72" r="14" fill="#94a58c" stroke="#8a857e" stroke-width="1"/>
  <circle cx="184" cy="72" r="18" fill="#8a7d6e" stroke="#8a857e" stroke-width="1"/>
  <circle cx="232" cy="72" r="12" fill="#d4cfc4" stroke="#8a857e" stroke-width="1"/>
  <rect x="68" y="92" width="36" height="18" fill="#8a7d6e" stroke="#8a857e" stroke-width="1"/>
  <rect x="116" y="94" width="28" height="14" fill="#6b7d62" stroke="#8a857e" stroke-width="1"/>
  <rect x="160" y="96" width="14" height="14" fill="#94a58c" stroke="#8a857e" stroke-width="1"/>
  <circle cx="88" cy="132" r="14" fill="#8a7d6e" stroke="#8a857e" stroke-width="1"/>
  <circle cx="136" cy="132" r="14" fill="#6b7d62" stroke="#8a857e" stroke-width="1"/>
  <circle cx="184" cy="132" r="14" fill="#94a58c" stroke="#8a857e" stroke-width="1"/>
  <rect x="112" y="126" width="48" height="14" fill="#d4cfc4" stroke="#8a857e" stroke-width="1"/>
  <rect x="56" y="160" width="48" height="20" fill="#6b7d62" stroke="#8a857e" stroke-width="1"/>
  <rect x="116" y="164" width="32" height="12" fill="#d4cfc4" stroke="#8a857e" stroke-width="1"/>
  <rect x="160" y="160" width="44" height="20" fill="#8a7d6e" stroke="#8a857e" stroke-width="1"/>
  <rect x="216" y="166" width="20" height="10" fill="#94a58c" stroke="#8a857e" stroke-width="1"/>
</svg>
