<?xml version="1.0" encoding="UTF-8"?>
<svg xmlns="http://www.w3.org/2000/svg" viewBox="0 0 320 240" fill="none" aria-labelledby="title desc">
  <title id="title">For you — variant A</title>
  <desc id="desc">Top-view grid with one accent circle highlighted</desc>
  <rect width="320" height="240" fill="var(--color-bg)"/>
  <rect x="56" y="40" width="208" height="160" fill="var(--color-surface-muted)" stroke="var(--color-text-muted)" stroke-width="1.5"/>
  <circle cx="92" cy="72" r="18" fill="var(--color-taupe)" stroke="var(--color-text-muted)" stroke-width="1" opacity="0.6"/>
  <circle cx="136" cy="72" r="14" fill="var(--color-taupe)" stroke="var(--color-text-muted)" stroke-width="1" opacity="0.6"/>
  <circle cx="180" cy="72" r="18" fill="var(--color-taupe)" stroke="var(--color-text-muted)" stroke-width="1" opacity="0.6"/>
  <!-- accent -->
  <circle cx="228" cy="72" r="18" fill="var(--color-secondary)" stroke="var(--color-secondary)" stroke-width="2"/>
  <circle cx="228" cy="72" r="11" fill="none" stroke="var(--color-secondary)" stroke-width="0.75"/>
  <circle cx="228" cy="72" r="5" fill="var(--color-secondary)"/>
  <rect x="72" y="96" width="36" height="20" fill="var(--color-taupe)" stroke="var(--color-text-muted)" stroke-width="1" opacity="0.6"/>
  <rect x="120" y="98" width="28" height="16" fill="var(--color-taupe)" stroke="var(--color-text-muted)" stroke-width="1" opacity="0.6"/>
  <rect x="168" y="100" width="16" height="16" fill="var(--color-taupe)" stroke="var(--color-text-muted)" stroke-width="1" opacity="0.6"/>
  <rect x="212" y="98" width="22" height="18" fill="var(--color-taupe)" stroke="var(--color-text-muted)" stroke-width="1" opacity="0.6"/>
  <circle cx="92" cy="140" r="14" fill="var(--color-taupe)" stroke="var(--color-text-muted)" stroke-width="1" opacity="0.6"/>
  <rect x="116" y="132" width="36" height="16" fill="var(--color-taupe)" stroke="var(--color-text-muted)" stroke-width="1" opacity="0.6"/>
  <rect x="172" y="128" width="10" height="22" fill="var(--color-taupe)" stroke="var(--color-text-muted)" stroke-width="1" opacity="0.6"/>
  <circle cx="228" cy="140" r="14" fill="var(--color-taupe)" stroke="var(--color-text-muted)" stroke-width="1" opacity="0.6"/>
  <rect x="64" y="164" width="52" height="22" fill="var(--color-taupe)" stroke="var(--color-text-muted)" stroke-width="1" opacity="0.6"/>
  <rect x="128" y="168" width="32" height="14" fill="var(--color-taupe)" stroke="var(--color-text-muted)" stroke-width="1" opacity="0.6"/>
  <rect x="172" y="164" width="48" height="22" fill="var(--color-taupe)" stroke="var(--color-text-muted)" stroke-width="1" opacity="0.6"/>
  <rect x="232" y="170" width="22" height="12" fill="var(--color-taupe)" stroke="var(--color-text-muted)" stroke-width="1" opacity="0.6"/>
</svg>
