<?xml version="1.0" encoding="UTF-8"?>
<svg xmlns="http://www.w3.org/2000/svg" viewBox="0 0 320 240" fill="none" aria-labelledby="title desc">
  <title id="title">Pantry shelf — variant A</title>
  <desc id="desc">Three-tier shelf grid — primary reference match</desc>
  <rect width="320" height="240" fill="var(--color-bg)"/>
  <rect x="48" y="36" width="224" height="168" fill="none" stroke="var(--color-text-muted)" stroke-width="1.5"/>
  <line x1="48" y1="92" x2="272" y2="92" stroke="var(--color-text-muted)" stroke-width="1.5"/>
  <line x1="48" y1="148" x2="272" y2="148" stroke="var(--color-text-muted)" stroke-width="1.5"/>
  <rect x="58" y="52" width="14" height="36" fill="var(--color-secondary)" stroke="var(--color-text-muted)" stroke-width="1"/>
  <rect x="76" y="58" width="18" height="30" fill="var(--color-taupe)" stroke="var(--color-text-muted)" stroke-width="1"/>
  <rect x="98" y="54" width="12" height="34" fill="var(--color-taupe)" stroke="var(--color-text-muted)" stroke-width="1"/>
  <rect x="114" y="50" width="10" height="38" fill="var(--color-secondary)" stroke="var(--color-text-muted)" stroke-width="1"/>
  <rect x="128" y="52" width="16" height="36" fill="var(--color-secondary)" stroke="var(--color-text-muted)" stroke-width="1"/>
  <rect x="168" y="50" width="28" height="38" fill="var(--color-taupe)" stroke="var(--color-text-muted)" stroke-width="1"/>
  <rect x="200" y="56" width="20" height="32" fill="var(--color-secondary)" stroke="var(--color-text-muted)" stroke-width="1"/>
  <rect x="224" y="52" width="12" height="36" fill="var(--color-taupe)" stroke="var(--color-text-muted)" stroke-width="1"/>
  <rect x="58" y="100" width="32" height="44" fill="var(--color-taupe)" stroke="var(--color-text-muted)" stroke-width="1"/>
  <rect x="94" y="106" width="22" height="38" fill="var(--color-secondary)" stroke="var(--color-text-muted)" stroke-width="1"/>
  <rect x="120" y="102" width="30" height="42" fill="var(--color-secondary)" stroke="var(--color-text-muted)" stroke-width="1"/>
  <rect x="154" y="108" width="14" height="36" fill="var(--color-taupe)" stroke="var(--color-text-muted)" stroke-width="1"/>
  <rect x="180" y="98" width="26" height="46" fill="var(--color-secondary)" stroke="var(--color-text-muted)" stroke-width="1"/>
  <rect x="210" y="104" width="20" height="40" fill="var(--color-taupe)" stroke="var(--color-text-muted)" stroke-width="1"/>
  <rect x="234" y="106" width="24" height="38" fill="var(--color-secondary)" stroke="var(--color-text-muted)" stroke-width="1"/>
  <rect x="58" y="156" width="34" height="42" fill="var(--color-secondary)" stroke="var(--color-text-muted)" stroke-width="1"/>
  <rect x="96" y="162" width="20" height="36" fill="var(--color-taupe)" stroke="var(--color-text-muted)" stroke-width="1"/>
  <rect x="120" y="158" width="36" height="40" fill="var(--color-secondary)" stroke="var(--color-text-muted)" stroke-width="1"/>
  <rect x="160" y="164" width="12" height="34" fill="var(--color-secondary)" stroke="var(--color-text-muted)" stroke-width="1"/>
  <rect x="176" y="160" width="22" height="38" fill="var(--color-taupe)" stroke="var(--color-text-muted)" stroke-width="1"/>
  <rect x="202" y="156" width="30" height="42" fill="var(--color-taupe)" stroke="var(--color-text-muted)" stroke-width="1"/>
  <rect x="236" y="164" width="10" height="34" fill="var(--color-secondary)" stroke="var(--color-text-muted)" stroke-width="1"/>
  <rect x="250" y="160" width="18" height="38" fill="var(--color-secondary)" stroke="var(--color-text-muted)" stroke-width="1"/>
</svg>
