<?xml version="1.0" encoding="UTF-8"?>
<svg xmlns="http://www.w3.org/2000/svg" viewBox="0 0 320 240" fill="none" aria-labelledby="title desc">
  <title id="title">Reference v2  -  Top view grid</title>
  <desc id="desc">Four-by-four grid of circles and rectangles  -  Claude reference</desc>
  <rect width="320" height="240" fill="#f7f5f0"/>
  <rect x="56" y="40" width="208" height="160" fill="#edeae4" stroke="#8a857e" stroke-width="1.5"/>
  <!-- row 1 circles -->
  <circle cx="92" cy="72" r="22" fill="#6b7d62" stroke="#8a857e" stroke-width="1"/>
  <circle cx="92" cy="72" r="14" fill="none" stroke="#5a6b52" stroke-width="0.75"/>
  <circle cx="92" cy="72" r="6" fill="#5a6b52"/>
  <circle cx="136" cy="72" r="16" fill="#d4cfc4" stroke="#8a857e" stroke-width="1"/>
  <circle cx="136" cy="72" r="10" fill="none" stroke="#b8b2a8" stroke-width="0.75"/>
  <circle cx="180" cy="72" r="22" fill="#8a7d6e" stroke="#8a857e" stroke-width="1"/>
  <circle cx="180" cy="72" r="14" fill="none" stroke="#726758" stroke-width="0.75"/>
  <circle cx="228" cy="72" r="16" fill="#94a58c" stroke="#8a857e" stroke-width="1"/>
  <circle cx="228" cy="72" r="10" fill="none" stroke="#6b7d62" stroke-width="0.75"/>
  <!-- row 2 -->
  <rect x="72" y="96" width="40" height="22" fill="#8a7d6e" stroke="#8a857e" stroke-width="1"/>
  <rect x="120" y="98" width="32" height="18" fill="#94a58c" stroke="#8a857e" stroke-width="1"/>
  <rect x="168" y="100" width="18" height="18" fill="#6b7d62" stroke="#8a857e" stroke-width="1"/>
  <rect x="212" y="98" width="24" height="20" fill="#d4cfc4" stroke="#8a857e" stroke-width="1"/>
  <!-- row 3 -->
  <circle cx="92" cy="140" r="16" fill="#8a7d6e" stroke="#8a857e" stroke-width="1"/>
  <circle cx="92" cy="140" r="10" fill="none" stroke="#726758" stroke-width="0.75"/>
  <rect x="116" y="132" width="40" height="16" fill="#d4cfc4" stroke="#8a857e" stroke-width="1"/>
  <rect x="172" y="128" width="12" height="24" fill="#6b7d62" stroke="#8a857e" stroke-width="1"/>
  <circle cx="228" cy="140" r="16" fill="#94a58c" stroke="#8a857e" stroke-width="1"/>
  <circle cx="228" cy="140" r="10" fill="none" stroke="#6b7d62" stroke-width="0.75"/>
  <!-- row 4 -->
  <rect x="64" y="164" width="56" height="24" fill="#6b7d62" stroke="#8a857e" stroke-width="1"/>
  <line x1="68" y1="170" x2="116" y2="170" stroke="#5a6b52" stroke-width="0.75"/>
  <line x1="68" y1="176" x2="116" y2="176" stroke="#5a6b52" stroke-width="0.75"/>
  <line x1="68" y1="182" x2="116" y2="182" stroke="#5a6b52" stroke-width="0.75"/>
  <rect x="128" y="168" width="36" height="16" fill="#d4cfc4" stroke="#8a857e" stroke-width="1"/>
  <rect x="172" y="164" width="52" height="24" fill="#8a7d6e" stroke="#8a857e" stroke-width="1"/>
  <line x1="176" y1="170" x2="220" y2="170" stroke="#726758" stroke-width="0.75"/>
  <line x1="176" y1="176" x2="220" y2="176" stroke="#726758" stroke-width="0.75"/>
  <line x1="176" y1="182" x2="220" y2="182" stroke="#726758" stroke-width="0.75"/>
  <rect x="232" y="170" width="24" height="14" fill="#d4cfc4" stroke="#8a857e" stroke-width="1"/>
</svg>
