<?xml version="1.0" encoding="UTF-8"?>
<svg xmlns="http://www.w3.org/2000/svg" viewBox="0 0 320 240" fill="none" aria-labelledby="title desc">
  <title id="title">Reference v3  -  Elevation section</title>
  <desc id="desc">Front elevation cabinet with cylinders and boxes on shelves  -  Claude reference</desc>
  <rect width="320" height="240" fill="#f7f5f0"/>
  <!-- cabinet frame -->
  <rect x="64" y="32" width="192" height="176" fill="#edeae4" stroke="#8a857e" stroke-width="1.5"/>
  <line x1="64" y1="80" x2="256" y2="80" stroke="#8a857e" stroke-width="1.5"/>
  <line x1="64" y1="128" x2="256" y2="128" stroke="#8a857e" stroke-width="1.5"/>
  <line x1="64" y1="176" x2="256" y2="176" stroke="#8a857e" stroke-width="1.5"/>
  <!-- feet -->
  <rect x="72" y="208" width="16" height="8" fill="#d4cfc4" stroke="#8a857e" stroke-width="1"/>
  <rect x="232" y="208" width="16" height="8" fill="#d4cfc4" stroke="#8a857e" stroke-width="1"/>
  <!-- top shelf -->
  <rect x="78" y="48" width="10" height="28" rx="2" fill="#6b7d62" stroke="#8a857e" stroke-width="1"/>
  <rect x="78" y="44" width="10" height="4" fill="#5a6b52" stroke="#8a857e" stroke-width="0.75"/>
  <rect x="94" y="50" width="10" height="26" rx="2" fill="#d4cfc4" stroke="#8a857e" stroke-width="1"/>
  <rect x="94" y="46" width="10" height="4" fill="#c8c0b0" stroke="#8a857e" stroke-width="0.75"/>
  <rect x="110" y="48" width="10" height="28" rx="2" fill="#6b7d62" stroke="#8a857e" stroke-width="1"/>
  <rect x="110" y="44" width="10" height="4" fill="#5a6b52" stroke="#8a857e" stroke-width="0.75"/>
  <rect x="180" y="46" width="22" height="30" fill="#8a7d6e" stroke="#8a857e" stroke-width="1"/>
  <rect x="208" y="48" width="20" height="28" fill="#d4cfc4" stroke="#8a857e" stroke-width="1"/>
  <!-- middle shelf -->
  <rect x="76" y="92" width="12" height="32" rx="2" fill="#6b7d62" stroke="#8a857e" stroke-width="1"/>
  <rect x="92" y="96" width="10" height="28" rx="2" fill="#d4cfc4" stroke="#8a857e" stroke-width="1"/>
  <rect x="106" y="94" width="14" height="30" rx="2" fill="#a09a94" stroke="#8a857e" stroke-width="1"/>
  <rect x="124" y="96" width="10" height="28" rx="2" fill="#a09a94" stroke="#8a857e" stroke-width="1"/>
  <rect x="186" y="94" width="18" height="30" fill="#d4cfc4" stroke="#8a857e" stroke-width="1"/>
  <rect x="208" y="96" width="18" height="28" fill="#d4cfc4" stroke="#8a857e" stroke-width="1"/>
  <!-- bottom shelf -->
  <rect x="76" y="140" width="48" height="32" fill="#8a7d6e" stroke="#8a857e" stroke-width="1"/>
  <rect x="136" y="148" width="10" height="24" rx="2" fill="#d4cfc4" stroke="#8a857e" stroke-width="1"/>
  <rect x="152" y="150" width="10" height="22" rx="2" fill="#a09a94" stroke="#8a857e" stroke-width="1"/>
  <rect x="168" y="150" width="10" height="22" rx="2" fill="#a09a94" stroke="#8a857e" stroke-width="1"/>
  <rect x="196" y="142" width="28" height="30" rx="4" fill="#6b7d62" stroke="#8a857e" stroke-width="1"/>
  <rect x="196" y="136" width="28" height="6" rx="2" fill="#5a6b52" stroke="#8a857e" stroke-width="0.75"/>
</svg>
